<svg width="26" height="26" viewBox="0 0 26 26" fill="none" xmlns="http://www.w3.org/2000/svg">
<path d="M20.2568 19.1991C20.212 19.3085 20.1507 19.4098 20.0749 19.5003C19.4958 20.1716 18.8266 20.7595 18.086 21.2476C17.8688 21.3698 17.6435 21.4779 17.4122 21.5705L16.9237 21.5216C16.695 21.4527 16.4609 21.3858 16.239 21.3065C15.2397 20.9244 14.3099 20.3803 13.4874 19.6956C12.0687 18.5686 10.8509 17.2461 9.70499 15.8479C8.6512 14.5923 7.72129 13.2376 6.92839 11.8028C6.38744 10.7937 5.93595 9.75296 5.74586 8.61265C5.69919 8.33185 5.68319 8.04604 5.65264 7.76966L5.70292 7.27305C6.00792 6.69592 6.49799 6.29315 7.0059 5.91135C7.3828 5.63246 7.76607 5.37413 8.15596 5.11866C8.48256 4.90305 8.89317 4.85967 9.25765 5.00174C9.46822 5.06945 9.64348 5.21708 9.74636 5.41312C10.2885 6.44574 10.8215 7.48337 11.3914 8.49752C11.5101 8.69822 11.5698 8.92854 11.5637 9.16165C11.5576 9.39505 11.486 9.62184 11.3568 9.8161C11.232 10.0324 11.0812 10.2343 10.9396 10.441C10.7744 10.6805 10.6091 10.9214 10.4334 11.1542C10.3619 11.2225 10.3564 11.3351 10.4212 11.4102C10.8235 11.9844 11.1995 12.5777 11.6274 13.1363C12.4095 14.196 13.2813 15.1867 14.233 16.0972C14.3143 16.1963 14.4565 16.2196 14.5652 16.1518C15.0006 15.9502 15.4411 15.7577 15.8853 15.5724C16.1988 15.4202 16.5579 15.3917 16.8916 15.4927C16.993 15.5268 17.0878 15.5781 17.1711 15.6447C18.1375 16.4269 19.1009 17.2122 20.0616 18.0003C20.3715 18.2499 20.4514 18.7596 20.2568 19.1991Z" fill="white"/>
<circle cx="13" cy="13" r="12.5" stroke="white"/>
</svg>
