<svg width="32" height="47" viewBox="0 0 32 47" fill="none" xmlns="http://www.w3.org/2000/svg">
<path d="M31 16.1758C31 18.1774 30.084 21.0366 28.5903 24.3098C27.1139 27.5449 25.1368 31.0515 23.1472 34.3004C21.1597 37.5459 19.1705 40.5165 17.6774 42.6767C17 43.6568 16.4253 44.4692 16 45.0637C15.5747 44.4692 15 43.6568 14.3226 42.6767C12.8295 40.5165 10.8403 37.5459 8.85279 34.3004C6.86317 31.0515 4.88614 27.5449 3.40974 24.3098C1.916 21.0366 1 18.1774 1 16.1758C1 7.78412 7.726 1 16 1C24.274 1 31 7.78412 31 16.1758Z" stroke="#154D87" stroke-width="2"/>
<circle cx="15.9985" cy="16" r="9.84615" fill="#154D87"/>
</svg>
