<svg width="60" height="61" viewBox="0 0 60 61" fill="none" xmlns="http://www.w3.org/2000/svg">
<g clip-path="url(#clip0_93_677)">
<path d="M4.6529 17.8806C4.6529 17.3185 5.11326 16.8623 5.68049 16.8623H15.6956C16.2629 16.8623 16.7232 17.3185 16.7232 17.8806C16.7232 18.4427 16.2629 18.8988 15.6956 18.8988H5.68049C5.11326 18.8988 4.6529 18.4438 4.6529 17.8806ZM5.68049 24.8129H15.6956C16.2629 24.8129 16.7232 24.3567 16.7232 23.7946C16.7232 23.2325 16.2629 22.7764 15.6956 22.7764H5.68049C5.11326 22.7764 4.6529 23.2325 4.6529 23.7946C4.6529 24.3567 5.11326 24.8129 5.68049 24.8129ZM5.68049 30.7281H15.6956C16.2629 30.7281 16.7232 30.2719 16.7232 29.7098C16.7232 29.1477 16.2629 28.6916 15.6956 28.6916H5.68049C5.11326 28.6916 4.6529 29.1477 4.6529 29.7098C4.6529 30.2719 5.11326 30.7281 5.68049 30.7281ZM5.68049 36.6433H15.6956C16.2629 36.6433 16.7232 36.1882 16.7232 35.625C16.7232 35.0629 16.2629 34.6068 15.6956 34.6068H5.68049C5.11326 34.6068 4.6529 35.0629 4.6529 35.625C4.6529 36.1882 5.11326 36.6433 5.68049 36.6433ZM5.68049 42.5585H15.6956C16.2629 42.5585 16.7232 42.1023 16.7232 41.5402C16.7232 40.9781 16.2629 40.5219 15.6956 40.5219H5.68049C5.11326 40.5219 4.6529 40.9781 4.6529 41.5402C4.6529 42.1023 5.11326 42.5585 5.68049 42.5585ZM5.68049 48.4737H15.6956C16.2629 48.4737 16.7232 48.0175 16.7232 47.4554C16.7232 46.8933 16.2629 46.4371 15.6956 46.4371H5.68049C5.11326 46.4371 4.6529 46.8933 4.6529 47.4554C4.6529 48.0175 5.11326 48.4737 5.68049 48.4737ZM5.68049 54.3877H15.6956C16.2629 54.3877 16.7232 53.9315 16.7232 53.3694C16.7232 52.8074 16.2629 52.3512 15.6956 52.3512H5.68049C5.11326 52.3512 4.6529 52.8074 4.6529 53.3694C4.6529 53.9315 5.11326 54.3888 5.68049 54.3877ZM47.4967 26.4246H49.2442C49.8114 26.4246 50.2718 25.9684 50.2718 25.4064C50.2718 24.8443 49.8114 24.3881 49.2442 24.3881H47.4967C46.9295 24.3881 46.4692 24.8443 46.4692 25.4064C46.4692 25.9684 46.9295 26.4246 47.4967 26.4246ZM53.6622 26.4246H55.4097C55.977 26.4246 56.4373 25.9684 56.4373 25.4064C56.4373 24.8443 55.977 24.3881 55.4097 24.3881H53.6622C53.095 24.3881 52.6347 24.8443 52.6347 25.4064C52.6347 25.9684 53.095 26.4246 53.6622 26.4246ZM41.3312 26.4246H43.0787C43.6459 26.4246 44.1063 25.9684 44.1063 25.4064C44.1063 24.8443 43.6459 24.3881 43.0787 24.3881H41.3312C40.764 24.3881 40.3036 24.8443 40.3036 25.4064C40.3036 25.9684 40.764 26.4246 41.3312 26.4246ZM47.4967 32.263H49.2442C49.8114 32.263 50.2718 31.8068 50.2718 31.2448C50.2718 30.6827 49.8114 30.2265 49.2442 30.2265H47.4967C46.9295 30.2265 46.4692 30.6827 46.4692 31.2448C46.4692 31.8068 46.9295 32.263 47.4967 32.263ZM53.6622 32.263H55.4097C55.977 32.263 56.4373 31.8068 56.4373 31.2448C56.4373 30.6827 55.977 30.2265 55.4097 30.2265H53.6622C53.095 30.2265 52.6347 30.6827 52.6347 31.2448C52.6347 31.8068 53.095 32.263 53.6622 32.263ZM41.3312 32.263H43.0787C43.6459 32.263 44.1063 31.8068 44.1063 31.2448C44.1063 30.6827 43.6459 30.2265 43.0787 30.2265H41.3312C40.764 30.2265 40.3036 30.6827 40.3036 31.2448C40.3036 31.8068 40.764 32.263 41.3312 32.263ZM47.4967 38.0991H49.2442C49.8114 38.0991 50.2718 37.6429 50.2718 37.0808C50.2718 36.5187 49.8114 36.0626 49.2442 36.0626H47.4967C46.9295 36.0626 46.4692 36.5187 46.4692 37.0808C46.4692 37.6429 46.9295 38.0991 47.4967 38.0991ZM53.6622 38.0991H55.4097C55.977 38.0991 56.4373 37.6429 56.4373 37.0808C56.4373 36.5187 55.977 36.0626 55.4097 36.0626H53.6622C53.095 36.0626 52.6347 36.5187 52.6347 37.0808C52.6347 37.6429 53.095 38.0991 53.6622 38.0991ZM41.3312 38.0991H43.0787C43.6459 38.0991 44.1063 37.6429 44.1063 37.0808C44.1063 36.5187 43.6459 36.0626 43.0787 36.0626H41.3312C40.764 36.0626 40.3036 36.5187 40.3036 37.0808C40.3036 37.6429 40.764 38.0991 41.3312 38.0991ZM47.4967 43.9363H49.2442C49.8114 43.9363 50.2718 43.4801 50.2718 42.918C50.2718 42.356 49.8114 41.8998 49.2442 41.8998H47.4967C46.9295 41.8998 46.4692 42.356 46.4692 42.918C46.4692 43.4801 46.9295 43.9363 47.4967 43.9363ZM53.6622 43.9363H55.4097C55.977 43.9363 56.4373 43.4801 56.4373 42.918C56.4373 42.356 55.977 41.8998 55.4097 41.8998H53.6622C53.095 41.8998 52.6347 42.356 52.6347 42.918C52.6347 43.4801 53.095 43.9363 53.6622 43.9363ZM41.3312 43.9363H43.0787C43.6459 43.9363 44.1063 43.4801 44.1063 42.918C44.1063 42.356 43.6459 41.8998 43.0787 41.8998H41.3312C40.764 41.8998 40.3036 42.356 40.3036 42.918C40.3036 43.4801 40.764 43.9363 41.3312 43.9363ZM47.4967 49.7735H49.2442C49.8114 49.7735 50.2718 49.3174 50.2718 48.7553C50.2718 48.1932 49.8114 47.737 49.2442 47.737H47.4967C46.9295 47.737 46.4692 48.1932 46.4692 48.7553C46.4692 49.3174 46.9295 49.7735 47.4967 49.7735ZM53.6622 49.7735H55.4097C55.977 49.7735 56.4373 49.3174 56.4373 48.7553C56.4373 48.1932 55.977 47.737 55.4097 47.737H53.6622C53.095 47.737 52.6347 48.1932 52.6347 48.7553C52.6347 49.3174 53.095 49.7735 53.6622 49.7735ZM41.3312 49.7735H43.0787C43.6459 49.7735 44.1063 49.3174 44.1063 48.7553C44.1063 48.1932 43.6459 47.737 43.0787 47.737H41.3312C40.764 47.737 40.3036 48.1932 40.3036 48.7553C40.3036 49.3174 40.764 49.7735 41.3312 49.7735ZM60.5042 59.486C60.5042 59.7559 60.3962 60.0154 60.2036 60.2063C60.011 60.3971 59.7491 60.5042 59.4766 60.5042H1.02758C0.460358 60.5042 0 60.048 0 59.486V8.99207C0 8.70115 0.126833 8.42302 0.347617 8.22984C0.568401 8.03666 0.861997 7.94705 1.15324 7.98197L20.4718 10.3327C20.9862 10.3955 21.3738 10.8284 21.3738 11.3428V25.3226H36.2332V19.5715C36.2332 19.0094 36.6936 18.5532 37.2608 18.5532H40.0241V14.3673C40.0241 13.8052 40.4845 13.349 41.0517 13.349H43.6812V8.99557C43.6812 8.62783 43.882 8.28919 44.2049 8.10881L47.3405 6.3609V1.01826C47.3405 0.455015 47.8009 0 48.3681 0C48.9354 0 49.3957 0.455015 49.3957 1.01826V6.35974L52.5313 8.10765C52.8543 8.28802 53.0539 8.62667 53.0539 8.9944V13.3479H55.6857C55.9582 13.3479 56.2201 13.4549 56.4127 13.6458C56.6052 13.8366 56.7133 14.0962 56.7133 14.3661V18.5544H59.4743C59.7467 18.5544 60.0086 18.6614 60.2012 18.8523C60.3938 19.0431 60.5019 19.3026 60.5019 19.5726V59.4755L60.5042 59.486ZM45.7352 13.349H50.9976V9.59023L48.367 8.12278L45.7352 9.59023V13.349ZM42.0781 18.5555H54.6569V15.3856H42.0781V18.5555ZM38.2872 58.4677H45.2901V54.0898C45.2901 53.5277 45.7504 53.0715 46.3177 53.0715H50.4174C50.6899 53.0715 50.9518 53.1786 51.1444 53.3694C51.337 53.5603 51.445 53.8198 51.445 54.0898V58.4677H58.4455V20.5886H38.2872V58.4677ZM21.3749 58.4677H36.2321V31.4135H21.3749V58.4677ZM21.3749 27.3591V29.377H36.2321V27.3591H21.3749ZM2.054 10.1418V58.4677H19.3174V12.2389L2.054 10.1418ZM49.3887 58.4677V55.1069H47.3441V58.4677H49.3887ZM25.6098 36.6433H31.9972C32.5645 36.6433 33.0248 36.1882 33.0248 35.625C33.0248 35.0629 32.5645 34.6068 31.9972 34.6068H25.6098C25.0425 34.6068 24.5822 35.0629 24.5822 35.625C24.5822 36.1871 25.0425 36.6433 25.6098 36.6433ZM31.9972 40.5219H25.6098C25.0425 40.5219 24.5822 40.9781 24.5822 41.5402C24.5822 42.1023 25.0425 42.5585 25.6098 42.5585H31.9972C32.5645 42.5585 33.0248 42.1023 33.0248 41.5402C33.0248 40.9781 32.5656 40.5219 31.9972 40.5219ZM31.9972 46.4371H25.6098C25.0425 46.4371 24.5822 46.8933 24.5822 47.4554C24.5822 48.0175 25.0425 48.4737 25.6098 48.4737H31.9972C32.5645 48.4737 33.0248 48.0175 33.0248 47.4554C33.0248 46.8933 32.5656 46.4371 31.9972 46.4371ZM31.9972 52.3512H25.6098C25.0425 52.3512 24.5822 52.8074 24.5822 53.3694C24.5822 53.9315 25.0425 54.3877 25.6098 54.3877H31.9972C32.5645 54.3877 33.0248 53.9315 33.0248 53.3694C33.0248 52.8074 32.5656 52.3512 31.9972 52.3512Z" fill="#084A8A"/>
</g>
<defs>
<clipPath id="clip0_93_677">
<rect width="60" height="60.5042" fill="white"/>
</clipPath>
</defs>
</svg>
