<svg width="70" height="62" viewBox="0 0 70 62" fill="none" xmlns="http://www.w3.org/2000/svg">
<path d="M20.1342 48.14C19.1356 48.14 18.2349 47.9253 17.4322 47.496C16.6296 47.0573 15.9996 46.4553 15.5422 45.69C15.0849 44.9153 14.8562 44.052 14.8562 43.1C14.8562 42.148 15.0849 41.2893 15.5422 40.524C15.9996 39.7493 16.6296 39.1473 17.4322 38.718C18.2349 38.2793 19.1356 38.06 20.1342 38.06C21.1329 38.06 22.0336 38.2793 22.8362 38.718C23.6389 39.1473 24.2689 39.7447 24.7262 40.51C25.1836 41.2753 25.4122 42.1387 25.4122 43.1C25.4122 44.0613 25.1836 44.9247 24.7262 45.69C24.2689 46.4553 23.6389 47.0573 22.8362 47.496C22.0336 47.9253 21.1329 48.14 20.1342 48.14ZM20.1342 46.544C20.7876 46.544 21.3756 46.3993 21.8982 46.11C22.4209 45.8113 22.8316 45.4007 23.1302 44.878C23.4289 44.346 23.5782 43.7533 23.5782 43.1C23.5782 42.4467 23.4289 41.8587 23.1302 41.336C22.8316 40.804 22.4209 40.3933 21.8982 40.104C21.3756 39.8053 20.7876 39.656 20.1342 39.656C19.4809 39.656 18.8929 39.8053 18.3702 40.104C17.8476 40.3933 17.4369 40.804 17.1382 41.336C16.8396 41.8587 16.6902 42.4467 16.6902 43.1C16.6902 43.7533 16.8396 44.346 17.1382 44.878C17.4369 45.4007 17.8476 45.8113 18.3702 46.11C18.8929 46.3993 19.4809 46.544 20.1342 46.544ZM31.3734 38.2C32.2227 38.2 32.9601 38.34 33.5854 38.62C34.2201 38.9 34.7054 39.3013 35.0414 39.824C35.3774 40.3467 35.5454 40.9673 35.5454 41.686C35.5454 42.3953 35.3774 43.016 35.0414 43.548C34.7054 44.0707 34.2201 44.472 33.5854 44.752C32.9601 45.032 32.2227 45.172 31.3734 45.172H29.1614V48H27.3414V38.2H31.3734ZM31.2894 43.632C32.0827 43.632 32.6847 43.464 33.0954 43.128C33.5061 42.792 33.7114 42.3113 33.7114 41.686C33.7114 41.0607 33.5061 40.58 33.0954 40.244C32.6847 39.908 32.0827 39.74 31.2894 39.74H29.1614V43.632H31.2894ZM44.7129 46.474V48H37.3629V38.2H44.5169V39.726H39.1829V42.274H43.9149V43.772H39.1829V46.474H44.7129ZM55.4498 38.2V48H53.9518L48.5478 41.364V48H46.7418V38.2H48.2398L53.6438 44.836V38.2H55.4498Z" fill="#084A8A"/>
<rect x="1" y="23" width="68" height="38" stroke="#084A8A" stroke-width="2"/>
<path d="M22.0096 23.5L35 1L47.9904 23.5H22.0096Z" stroke="#084A8A"/>
</svg>
