<svg width="92" height="85" viewBox="0 0 92 85" fill="none" xmlns="http://www.w3.org/2000/svg">
<path d="M50.9274 75.7144C49.189 75.5212 46.4847 74.8452 43.4908 74.0725C41.7523 75.1349 39.3378 75.5212 36.4404 74.5554C35.7644 74.3623 34.9917 74.0725 34.2191 73.6862C32.384 72.7204 30.2593 71.3683 27.9414 69.9196C27.7482 69.823 27.6516 69.7264 27.4585 69.6298C26.879 69.2435 26.5892 68.5675 26.879 67.8914C27.1687 67.1188 28.1345 66.829 28.8106 67.3119C29.0037 67.4085 29.1969 67.5051 29.3901 67.6982C32.384 69.6298 35.1849 71.4649 37.2131 72.1409C40.9797 73.2999 43.1044 71.7546 43.7805 69.823C44.36 68.2777 44.0702 66.3461 42.2352 65.5735C39.7241 64.4145 36.9233 62.7727 34.3156 61.1308C31.2251 59.1992 28.0379 57.3642 25.6234 56.3984C22.9192 55.336 16.6415 54.4668 10.3638 55.1428C7.2732 55.4326 3.79631 56.012 1.67155 56.3018C0.609169 56.4949 -0.163472 57.4607 0.0296883 58.5231L2.15445 70.7888C2.44419 71.658 3.40999 72.3341 4.47238 72.1409L7.94926 71.5614C8.81848 71.4649 9.59113 71.658 10.1706 72.3341C13.9372 76.1973 18.2833 79.6742 21.2773 81.5092C27.9414 85.469 45.519 84.4066 50.7343 83.8271C55.9496 83.1511 56.0462 76.3905 50.9274 75.7144Z" fill="#084A8A"/>
<path d="M89.7456 13.8094C89.5525 12.747 88.5867 12.071 87.5243 12.2641L84.0474 12.8436C83.1782 12.9402 82.4055 12.747 81.826 12.071C78.0594 8.20775 73.7133 4.73087 70.7193 2.89584C64.057 -1.06394 46.4794 -0.00156317 41.2641 0.577918C36.0488 1.1574 36.0488 7.91801 41.0709 8.59407C42.8094 8.78723 45.5136 9.46329 48.5076 10.2359C50.2461 9.17355 52.6606 8.78723 55.558 9.75303C56.234 9.94619 57.0067 10.2359 57.7793 10.6223C59.6143 11.5881 61.7391 12.9402 64.057 14.3889C64.2502 14.4855 64.3468 14.582 64.5399 14.6786C65.1194 15.0649 65.4091 15.741 65.1194 16.4171C64.8297 17.1897 63.8639 17.4794 63.1878 16.9965C62.9946 16.9 62.8015 16.8034 62.6083 16.6102C59.6143 14.6786 56.8135 12.8436 54.7853 12.1675C51.0187 11.0086 48.8939 12.5539 48.2179 14.4855C47.6384 16.0307 47.9281 17.9623 49.7632 18.735C52.2742 19.894 55.0751 21.5358 57.6827 23.1777C60.7733 25.1093 63.9604 26.9443 66.375 27.9101C69.0792 28.9725 75.3569 29.8417 81.6346 29.1656C84.7252 28.8759 88.2021 28.2964 90.3268 28.0067C91.3892 27.8135 92.1618 26.8477 91.9687 25.7853L89.7456 13.8094Z" fill="#084A8A"/>
<path d="M46.0131 25.4932C36.8379 25.4932 29.3047 33.0264 29.3047 42.2015C29.3047 51.3766 36.8379 58.9099 46.0131 58.9099C55.1882 58.9099 62.7214 51.3766 62.7214 42.2015C62.7214 33.0264 55.1882 25.4932 46.0131 25.4932ZM47.4618 50.5074V52.6322C47.4618 52.8253 47.2686 53.0185 47.0754 53.0185H45.0473C44.8541 53.0185 44.6609 52.8253 44.6609 52.6322V50.604C42.5362 50.5074 40.8943 48.8656 40.7011 46.7408C40.7011 46.5476 40.8943 46.3545 41.0875 46.3545H43.1156C43.3088 46.3545 43.502 46.4511 43.502 46.6442C43.5985 47.3203 44.178 47.8032 44.8541 47.8032H46.6891C47.7515 47.8032 48.7173 47.0305 48.8139 45.9682C48.9105 44.7126 47.9447 43.7468 46.7857 43.7468H45.4336C42.9225 43.7468 40.6046 41.9118 40.3148 39.3041C40.0251 36.5999 41.9567 34.282 44.5643 33.9922V31.964C44.5643 31.7709 44.7575 31.5777 44.9507 31.5777H46.9789C47.172 31.5777 47.3652 31.7709 47.3652 31.964V33.9922C49.4899 34.0888 51.1318 35.7307 51.325 37.8554C51.325 38.0486 51.1318 38.2417 50.9386 38.2417L48.9105 38.2435C48.7173 38.2435 48.5241 38.1469 48.5241 37.9537C48.4276 37.2777 47.8481 36.7948 47.172 36.7948H45.337C44.2746 36.7948 43.3088 37.5674 43.2122 38.6298C43.1156 39.8853 44.0814 40.8511 45.2404 40.8511H46.7857C49.6831 40.8511 51.9044 43.3622 51.6147 46.2596C51.4215 48.3827 49.5865 50.1211 47.4618 50.5074Z" fill="#084A8A"/>
</svg>
