<svg width="65" height="80" viewBox="0 0 65 80" fill="none" xmlns="http://www.w3.org/2000/svg">
<path d="M33.4341 5.21294C33.4505 5.21294 33.467 5.20547 33.4834 5.20547C34.7421 4.95135 35.5837 3.38325 35.1995 2.18887C34.766 0.847995 33.5313 0.211191 32.1829 0.472789C31.1933 0.668614 30.2052 0.864438 29.2067 1.06923C26.8119 1.5431 24.4157 2.02593 22.0209 2.4998C19.1359 3.07233 16.2493 3.65233 13.3643 4.22485C10.8709 4.72413 8.37001 5.22191 5.87661 5.72119C4.66728 5.96635 3.41609 6.14573 2.21423 6.44918C2.19779 6.45666 2.18135 6.45666 2.1649 6.45666C1.11851 6.66145 0.366603 7.80501 0.366603 8.82001V12.2043V20.5426V31.0798V41.2163V48.0911C0.366603 48.5575 0.359129 49.0314 0.366603 49.4978C0.374077 50.1271 0.554954 50.7818 0.710418 51.3947C0.955573 52.4007 1.27397 53.3814 1.65068 54.3455C3.29351 58.5236 5.86016 62.2099 8.99187 65.4149C11.862 68.3657 15.1716 70.9084 18.6306 73.1238C21.3363 74.8653 24.1735 76.4095 27.0915 77.7758C28.7179 78.5366 30.3697 79.296 32.0618 79.885C33.1157 80.2527 34.1307 79.6563 35.0784 79.2228C36.5748 78.5366 38.0547 77.8161 39.5166 77.0567C42.0833 75.7248 44.5931 74.2689 47.0133 72.6664C50.7653 70.173 54.3619 67.3193 57.3875 63.9604C59.4145 61.7047 61.2621 59.2023 62.5791 56.4637C63.3968 54.7716 64.0919 52.9733 64.4103 51.1167C64.5329 50.3812 64.648 49.6368 64.639 48.8923V44.8219V36.074V25.4636V15.6694V9.50614V8.65558C64.639 7.64207 63.8871 6.49702 62.8407 6.29222C61.8676 6.0964 60.8869 5.90805 59.9138 5.71222C57.5833 5.24583 55.2544 4.78841 52.9239 4.32202C50.0956 3.75846 47.2584 3.20238 44.4302 2.63733C41.9936 2.15449 39.542 1.67315 37.098 1.18284C35.9126 0.94516 34.7271 0.700005 33.5417 0.480263C33.5253 0.480263 33.5088 0.472789 33.4924 0.472789C32.8377 0.341242 32.1919 0.374129 31.6044 0.717943C31.0977 1.01243 30.6073 1.6014 30.4758 2.1814C30.1903 3.3997 30.8361 4.9364 32.1844 5.198" fill="#084A8A"/>
<line x1="20.5837" y1="35.9361" x2="29.8021" y2="42.582" stroke="white" stroke-width="5" stroke-linecap="round"/>
<line x1="48.3785" y1="27.6978" x2="30.2999" y2="42.9625" stroke="white" stroke-width="5" stroke-linecap="round"/>
</svg>
