<svg width="90" height="75" viewBox="0 0 90 75" fill="none" xmlns="http://www.w3.org/2000/svg">
<g clip-path="url(#clip0_202_459)">
<path d="M72.415 4.34258H38.8666C37.6666 4.34258 36.6953 3.37132 36.6953 2.17129C36.6953 0.971265 37.6685 0 38.8666 0H72.415C73.615 0 74.5863 0.971265 74.5863 2.17129C74.5863 3.37132 73.615 4.34258 72.415 4.34258Z" fill="#084A8A"/>
<path d="M37.9973 39.5175C37.9236 39.5175 37.8499 39.5136 37.7743 39.5058C36.5821 39.3837 35.7135 38.3174 35.8357 37.1252L39.4183 2.05883C39.5404 0.866557 40.6048 -0.00389738 41.799 0.120176C42.9912 0.242311 43.8597 1.30857 43.7376 2.50084L40.155 37.5672C40.0406 38.6838 39.0965 39.5175 37.9973 39.5175Z" fill="#084A8A"/>
<path d="M86.4189 42.9916C82.9448 38.2148 77.6252 35.2836 71.7627 34.8493L69.9171 34.7407L66.6602 2.93133L71.0027 2.49707L73.934 30.7239C80.3393 31.5924 86.0932 35.0664 90.0015 40.3861L86.4189 42.9916Z" fill="#084A8A"/>
<path d="M38.8718 35.827C38.5771 35.827 38.2825 35.7068 38.0673 35.4703C37.664 35.0264 37.697 34.3401 38.1409 33.9368L47.586 25.3602C48.03 24.957 48.7163 24.99 49.1195 25.4339C49.5228 25.8779 49.4898 26.5641 49.0459 26.9674L39.6007 35.544C39.3933 35.734 39.1316 35.827 38.8718 35.827Z" fill="#084A8A"/>
<path d="M50.145 24.3047C52.01 26.1696 52.8359 28.37 51.9867 29.2172C51.1376 30.0663 48.9392 29.2405 47.0742 27.3755C45.2092 25.5105 44.3833 23.3101 45.2325 22.4629C46.0816 21.6138 48.28 22.4397 50.145 24.3047Z" fill="#084A8A"/>
<path d="M21.8209 48.2031C14.8727 48.2031 9.33594 53.8485 9.33594 60.688C9.33594 67.6362 14.9813 73.173 21.8209 73.173C28.769 73.173 34.3058 67.5276 34.3058 60.688C34.4143 53.7399 28.769 48.2031 21.8209 48.2031ZM21.8209 67.7447C17.9125 67.7447 14.7642 64.5964 14.7642 60.688C14.7642 56.7797 17.9125 53.6314 21.8209 53.6314C25.7292 53.6314 28.8776 56.7797 28.8776 60.688C28.8776 64.5964 25.7292 67.7447 21.8209 67.7447Z" fill="#084A8A"/>
<path d="M70.2397 38.3232C60.2517 38.3232 52.1094 46.4656 52.1094 56.4535C52.1094 66.4415 60.2517 74.5838 70.2397 74.5838C80.2276 74.5838 88.3699 66.4415 88.3699 56.4535C88.2633 46.4656 80.2276 38.3232 70.2397 38.3232ZM70.2397 66.6586C64.5943 66.6586 60.0346 62.0989 60.0346 56.4535C60.0346 50.8082 64.5943 46.2485 70.2397 46.2485C75.885 46.2485 80.4447 50.8082 80.4447 56.4535C80.4447 62.0989 75.8869 66.6586 70.2397 66.6586Z" fill="#084A8A"/>
<path d="M17.8042 34.3064C16.9047 34.3064 16.1758 33.5774 16.1758 32.6779V13.1382C16.1758 12.2387 16.9047 11.5098 17.8042 11.5098C18.7038 11.5098 19.4327 12.2387 19.4327 13.1382V32.6779C19.4327 33.5774 18.7038 34.3064 17.8042 34.3064Z" fill="#084A8A"/>
<path d="M39.8438 42.7744H50.5917L47.5518 48.9626L47.1176 55.1508H39.8438V42.7744Z" fill="#084A8A"/>
<path d="M47.3337 61.7729H37.1286C36.5296 61.7729 36.043 61.2863 36.043 60.6872C36.043 60.0882 36.5296 59.6016 37.1286 59.6016H47.3337C47.9327 59.6016 48.4193 60.0882 48.4193 60.6872C48.4193 61.2863 47.9327 61.7729 47.3337 61.7729Z" fill="#084A8A"/>
<path d="M61.1244 1.7373H58.9531V35.9351H61.1244V1.7373Z" fill="#084A8A"/>
<path d="M24.3182 60.6874C24.3182 62.0658 23.1996 63.1844 21.8212 63.1844C20.4428 63.1844 19.3242 62.0658 19.3242 60.6874C19.3242 59.309 20.4428 58.1904 21.8212 58.1904C23.1996 58.1904 24.3182 59.309 24.3182 60.6874Z" fill="#084A8A"/>
<path d="M73.606 56.4534C73.606 58.3126 72.0997 59.8189 70.2405 59.8189C68.3813 59.8189 66.875 58.3126 66.875 56.4534C66.875 54.5942 68.3813 53.0879 70.2405 53.0879C72.0997 53.0879 73.606 54.5942 73.606 56.4534Z" fill="#084A8A"/>
<path d="M70.3498 32.5697H70.1327C59.2762 32.3526 44.8372 43.6433 46.5742 52.9798H41.0374V30.507L5.64536 30.3984C1.5199 30.3984 0.542823 33.004 0.217129 36.5866L6.62244 36.478C7.16526 36.478 7.70808 36.9123 7.70808 37.5637C7.70808 38.2151 7.27382 38.6493 6.62244 38.6493L0.108565 38.7579V40.2778L6.62244 40.1692C7.16526 40.1692 7.70808 40.6035 7.70808 41.2549C7.70808 41.9063 7.27382 42.3405 6.62244 42.3405L0 42.451V43.9709L6.62244 43.8624C7.16526 43.8624 7.70808 44.2966 7.70808 44.948C7.70808 45.5994 7.27382 46.0337 6.62244 46.0337L0 46.1422V55.0426C0 56.2368 0 56.9967 4.99397 56.9967H7.70808C9.55368 51.0257 15.199 46.6831 21.8215 46.6831C28.4439 46.6831 33.9807 51.0257 35.9349 56.9967H47.9855C47.2256 45.2718 59.4934 34.6325 70.6755 34.8496L71.8697 30.507L70.3498 32.5697Z" fill="#084A8A"/>
</g>
<defs>
<clipPath id="clip0_202_459">
<rect width="90" height="74.5838" fill="white"/>
</clipPath>
</defs>
</svg>
