<svg width="90" height="57" viewBox="0 0 90 57" fill="none" xmlns="http://www.w3.org/2000/svg">
<g clip-path="url(#clip0_202_474)">
<path d="M44.5868 0.00180828H16.6525C15.2058 0.00180828 14.0323 1.17538 14.0323 2.62201V39.4296C14.0323 40.8762 12.8587 42.0498 11.4121 42.0498H2.6202C1.17357 42.0498 0 43.2234 0 44.67C0 46.1166 1.17357 47.2902 2.6202 47.2902H14.0305V47.2938H47.9502C49.2377 47.2938 50.3209 46.3571 50.5361 45.0877C51.5867 38.907 56.9808 34.1874 63.4562 34.1874C69.9317 34.1874 75.3258 38.907 76.3764 45.0877C76.5916 46.3571 77.6766 47.2938 78.9622 47.2938H87.3762C88.8228 47.2938 89.9964 46.1202 89.9964 44.6736V2.6202C89.9964 1.17357 88.8228 0 87.3762 0L44.5868 0.00180828ZM50.4927 24.8368H24.3087C22.8621 24.8368 21.6885 23.6632 21.6885 22.2166V10.4898C21.6885 9.04322 22.8621 7.86964 24.3087 7.86964H50.4927C51.9393 7.86964 53.1129 9.04322 53.1129 10.4898V22.2166C53.1129 23.6632 51.9393 24.8368 50.4927 24.8368Z" fill="#084A8A"/>
<path d="M63.4539 38.1836C58.425 38.1836 54.3438 42.2685 54.3438 47.2937C54.3438 52.3225 58.425 56.4002 63.4539 56.4002C68.4881 56.4002 72.5604 52.3243 72.5604 47.2937C72.5604 42.2667 68.4881 38.1836 63.4539 38.1836Z" fill="#084A8A"/>
</g>
<defs>
<clipPath id="clip0_202_474">
<rect width="90" height="56.3985" fill="white"/>
</clipPath>
</defs>
</svg>
